<svg width="16" height="16" viewBox="0 0 16 16" fill="none" xmlns="http://www.w3.org/2000/svg">
<path d="M7.99999 1.33334C11.682 1.33334 14.6667 4.31801 14.6667 8.00001C14.6667 11.682 11.682 14.6667 7.99999 14.6667C4.31799 14.6667 1.33333 11.682 1.33333 8.00001C1.33333 4.31801 4.31799 1.33334 7.99999 1.33334ZM7.99999 4.66668C7.87917 4.66668 7.76243 4.71044 7.67137 4.78985C7.58032 4.86927 7.52109 4.97897 7.50466 5.09868L7.49999 5.16668V7.50001H5.16666C5.03998 7.50005 4.91803 7.54817 4.82547 7.63466C4.7329 7.72114 4.67661 7.83954 4.66798 7.96593C4.65934 8.09232 4.69901 8.21727 4.77895 8.31554C4.85889 8.41381 4.97316 8.47808 5.09866 8.49534L5.16666 8.50001H7.49999V10.8333C7.50003 10.96 7.54816 11.082 7.63464 11.1745C7.72113 11.2671 7.83953 11.3234 7.96591 11.332C8.0923 11.3407 8.21726 11.301 8.31553 11.2211C8.4138 11.1411 8.47806 11.0268 8.49533 10.9013L8.49999 10.8333V8.50001H10.8333C10.96 8.49997 11.082 8.45185 11.1745 8.36536C11.2671 8.27888 11.3234 8.16048 11.332 8.03409C11.3406 7.9077 11.301 7.78275 11.221 7.68448C11.1411 7.58621 11.0268 7.52194 10.9013 7.50468L10.8333 7.50001H8.49999V5.16668C8.49999 5.03407 8.44732 4.90689 8.35355 4.81312C8.25978 4.71935 8.1326 4.66668 7.99999 4.66668Z" fill="#D99BFF"/>
</svg>
