<svg width="16" height="16" viewBox="0 0 16 16" fill="none" xmlns="http://www.w3.org/2000/svg">
<path opacity="0.3" d="M13.3333 5.33333L8 8.66667L2.66667 5.33333V12H13.3333V5.33333ZM13.3333 4H2.66667L8 7.32667L13.3333 4Z" fill="#D99BFF"/>
<path d="M2.66667 13.3333H13.3333C14.0667 13.3333 14.6667 12.7333 14.6667 12V3.99999C14.6667 3.26666 14.0667 2.66666 13.3333 2.66666H2.66667C1.93333 2.66666 1.33333 3.26666 1.33333 3.99999V12C1.33333 12.7333 1.93333 13.3333 2.66667 13.3333ZM13.3333 3.99999L8 7.32666L2.66667 3.99999H13.3333ZM2.66667 5.33332L8 8.66666L13.3333 5.33332V12H2.66667V5.33332Z" fill="#D99BFF"/>
</svg>
