<svg width="16" height="16" viewBox="0 0 16 16" fill="none" xmlns="http://www.w3.org/2000/svg">
<path d="M14 12.6667V8.178C14 7.8163 13.9264 7.45838 13.7837 7.12601C13.641 6.79365 13.4322 6.49378 13.17 6.24466L8.91867 2.20666C8.67087 1.97125 8.34213 1.84 8.00033 1.84C7.65854 1.84 7.3298 1.97125 7.082 2.20666L2.83 6.24466C2.56777 6.49378 2.35896 6.79365 2.21627 7.12601C2.07358 7.45838 2 7.8163 2 8.178V12.6667C2 13.0203 2.14048 13.3594 2.39052 13.6095C2.64057 13.8595 2.97971 14 3.33333 14H12.6667C13.0203 14 13.3594 13.8595 13.6095 13.6095C13.8595 13.3594 14 13.0203 14 12.6667Z" stroke="#D99BFF" stroke-width="2" stroke-linecap="round" stroke-linejoin="round"/>
</svg>
